<mxfile host="Electron" agent="Mozilla/5.0 (Windows NT 10.0; Win64; x64) AppleWebKit/537.36 (KHTML, like Gecko) draw.io/26.0.9 Chrome/128.0.6613.186 Electron/32.2.5 Safari/537.36" version="26.0.9">
  <diagram id="7gcUSTIZ7YSJ5vT40chW" name="Page-1">
    <mxGraphModel dx="1037" dy="797" grid="1" gridSize="10" guides="1" tooltips="1" connect="1" arrows="1" fold="1" page="1" pageScale="1" pageWidth="1169" pageHeight="827" math="0" shadow="0">
      <root>
        <mxCell id="0" />
        <mxCell id="1" parent="0" />
        <mxCell id="e6qBKvb2sz5lTQHtv3lD-23" value="&lt;font style=&quot;font-size: 9px;&quot;&gt;マスタデータ登録&lt;/font&gt;" style="shape=umlFrame;whiteSpace=wrap;html=1;pointerEvents=0;strokeColor=#0066CC;fontColor=#FFFFFF;fillColor=#0066CC;fontStyle=1" vertex="1" parent="1">
          <mxGeometry x="260" y="115" width="530" height="155" as="geometry" />
        </mxCell>
        <mxCell id="e6qBKvb2sz5lTQHtv3lD-1" value="API Server" style="html=1;whiteSpace=wrap;fontStyle=1" vertex="1" parent="1">
          <mxGeometry x="280" y="40" width="110" height="50" as="geometry" />
        </mxCell>
        <mxCell id="e6qBKvb2sz5lTQHtv3lD-5" style="rounded=0;orthogonalLoop=1;jettySize=auto;html=1;endArrow=none;startFill=0;dashed=1;dashPattern=8 8;fontStyle=1" edge="1" parent="1" source="e6qBKvb2sz5lTQHtv3lD-87">
          <mxGeometry relative="1" as="geometry">
            <mxPoint x="145" y="2003.9507378472222" as="targetPoint" />
          </mxGeometry>
        </mxCell>
        <mxCell id="e6qBKvb2sz5lTQHtv3lD-2" value="Client" style="html=1;whiteSpace=wrap;fontStyle=1" vertex="1" parent="1">
          <mxGeometry x="90" y="40" width="110" height="50" as="geometry" />
        </mxCell>
        <mxCell id="e6qBKvb2sz5lTQHtv3lD-8" style="rounded=0;orthogonalLoop=1;jettySize=auto;html=1;endArrow=none;startFill=0;dashed=1;dashPattern=8 8;fontStyle=1" edge="1" parent="1" source="e6qBKvb2sz5lTQHtv3lD-91">
          <mxGeometry relative="1" as="geometry">
            <mxPoint x="535" y="1990" as="targetPoint" />
          </mxGeometry>
        </mxCell>
        <mxCell id="e6qBKvb2sz5lTQHtv3lD-3" value="Supabase" style="html=1;whiteSpace=wrap;fontStyle=1" vertex="1" parent="1">
          <mxGeometry x="480" y="40" width="110" height="50" as="geometry" />
        </mxCell>
        <mxCell id="e6qBKvb2sz5lTQHtv3lD-9" style="rounded=0;orthogonalLoop=1;jettySize=auto;html=1;endArrow=none;startFill=0;dashed=1;dashPattern=8 8;fontStyle=1" edge="1" parent="1" source="e6qBKvb2sz5lTQHtv3lD-16">
          <mxGeometry relative="1" as="geometry">
            <mxPoint x="735" y="360" as="targetPoint" />
          </mxGeometry>
        </mxCell>
        <mxCell id="e6qBKvb2sz5lTQHtv3lD-4" value="Poke API" style="html=1;whiteSpace=wrap;fontStyle=1" vertex="1" parent="1">
          <mxGeometry x="680" y="40" width="110" height="50" as="geometry" />
        </mxCell>
        <mxCell id="e6qBKvb2sz5lTQHtv3lD-11" value="" style="rounded=0;orthogonalLoop=1;jettySize=auto;html=1;exitX=0.5;exitY=1;exitDx=0;exitDy=0;endArrow=none;startFill=0;dashed=1;dashPattern=8 8;fontStyle=1" edge="1" parent="1" source="e6qBKvb2sz5lTQHtv3lD-89">
          <mxGeometry relative="1" as="geometry">
            <mxPoint x="340" y="1996.9135199652778" as="targetPoint" />
            <mxPoint x="335" y="90" as="sourcePoint" />
          </mxGeometry>
        </mxCell>
        <mxCell id="e6qBKvb2sz5lTQHtv3lD-13" value="" style="rounded=0;orthogonalLoop=1;jettySize=auto;html=1;exitX=0.5;exitY=1;exitDx=0;exitDy=0;endArrow=none;startFill=0;dashed=1;dashPattern=8 8;fontStyle=1" edge="1" parent="1" source="e6qBKvb2sz5lTQHtv3lD-1" target="e6qBKvb2sz5lTQHtv3lD-12">
          <mxGeometry relative="1" as="geometry">
            <mxPoint x="335" y="750" as="targetPoint" />
            <mxPoint x="335" y="90" as="sourcePoint" />
          </mxGeometry>
        </mxCell>
        <mxCell id="e6qBKvb2sz5lTQHtv3lD-12" value="" style="html=1;points=[[0,0,0,0,5],[0,1,0,0,-5],[1,0,0,0,5],[1,1,0,0,-5]];perimeter=orthogonalPerimeter;outlineConnect=0;targetShapes=umlLifeline;portConstraint=eastwest;newEdgeStyle={&quot;curved&quot;:0,&quot;rounded&quot;:0};fontStyle=1" vertex="1" parent="1">
          <mxGeometry x="330" y="140" width="10" height="100" as="geometry" />
        </mxCell>
        <mxCell id="e6qBKvb2sz5lTQHtv3lD-17" value="" style="rounded=0;orthogonalLoop=1;jettySize=auto;html=1;endArrow=none;startFill=0;dashed=1;dashPattern=8 8;fontStyle=1" edge="1" parent="1" source="e6qBKvb2sz5lTQHtv3lD-4" target="e6qBKvb2sz5lTQHtv3lD-16">
          <mxGeometry relative="1" as="geometry">
            <mxPoint x="735" y="760" as="targetPoint" />
            <mxPoint x="735" y="90" as="sourcePoint" />
          </mxGeometry>
        </mxCell>
        <mxCell id="e6qBKvb2sz5lTQHtv3lD-16" value="" style="html=1;points=[[0,0,0,0,5],[0,1,0,0,-5],[1,0,0,0,5],[1,1,0,0,-5]];perimeter=orthogonalPerimeter;outlineConnect=0;targetShapes=umlLifeline;portConstraint=eastwest;newEdgeStyle={&quot;curved&quot;:0,&quot;rounded&quot;:0};fontStyle=1" vertex="1" parent="1">
          <mxGeometry x="730" y="140" width="10" height="50" as="geometry" />
        </mxCell>
        <mxCell id="e6qBKvb2sz5lTQHtv3lD-18" value="ポケモン・技・日本語名データの要求&lt;div&gt;fetch.ts&lt;/div&gt;" style="html=1;verticalAlign=bottom;endArrow=block;curved=0;rounded=0;entryX=0.028;entryY=0.383;entryDx=0;entryDy=0;entryPerimeter=0;fontStyle=1" edge="1" parent="1" source="e6qBKvb2sz5lTQHtv3lD-12" target="e6qBKvb2sz5lTQHtv3lD-16">
          <mxGeometry x="-0.4875" y="9" width="80" relative="1" as="geometry">
            <mxPoint x="390" y="160" as="sourcePoint" />
            <mxPoint x="470" y="160" as="targetPoint" />
            <mxPoint as="offset" />
          </mxGeometry>
        </mxCell>
        <mxCell id="e6qBKvb2sz5lTQHtv3lD-19" value="ポケモン・技・日本語名データ" style="html=1;verticalAlign=bottom;endArrow=open;dashed=1;endSize=8;curved=0;rounded=0;fontStyle=1" edge="1" parent="1" target="e6qBKvb2sz5lTQHtv3lD-12">
          <mxGeometry x="-0.4872" relative="1" as="geometry">
            <mxPoint x="730" y="180" as="sourcePoint" />
            <mxPoint x="350" y="180" as="targetPoint" />
            <mxPoint as="offset" />
          </mxGeometry>
        </mxCell>
        <mxCell id="e6qBKvb2sz5lTQHtv3lD-21" value="" style="rounded=0;orthogonalLoop=1;jettySize=auto;html=1;endArrow=none;startFill=0;dashed=1;dashPattern=8 8;fontStyle=1" edge="1" parent="1" source="e6qBKvb2sz5lTQHtv3lD-3" target="e6qBKvb2sz5lTQHtv3lD-20">
          <mxGeometry relative="1" as="geometry">
            <mxPoint x="535" y="760" as="targetPoint" />
            <mxPoint x="535" y="90" as="sourcePoint" />
          </mxGeometry>
        </mxCell>
        <mxCell id="e6qBKvb2sz5lTQHtv3lD-20" value="" style="html=1;points=[[0,0,0,0,5],[0,1,0,0,-5],[1,0,0,0,5],[1,1,0,0,-5]];perimeter=orthogonalPerimeter;outlineConnect=0;targetShapes=umlLifeline;portConstraint=eastwest;newEdgeStyle={&quot;curved&quot;:0,&quot;rounded&quot;:0};fontStyle=1" vertex="1" parent="1">
          <mxGeometry x="530" y="190" width="10" height="50" as="geometry" />
        </mxCell>
        <mxCell id="e6qBKvb2sz5lTQHtv3lD-22" value="ポケモン・技のマスタデータの登録&lt;div&gt;register.ts&lt;/div&gt;" style="html=1;verticalAlign=bottom;endArrow=block;curved=0;rounded=0;entryX=-0.15;entryY=0.202;entryDx=0;entryDy=0;entryPerimeter=0;fontStyle=1" edge="1" parent="1" source="e6qBKvb2sz5lTQHtv3lD-12" target="e6qBKvb2sz5lTQHtv3lD-20">
          <mxGeometry x="0.061" y="-40" width="80" relative="1" as="geometry">
            <mxPoint x="360" y="200" as="sourcePoint" />
            <mxPoint x="440" y="200" as="targetPoint" />
            <mxPoint as="offset" />
          </mxGeometry>
        </mxCell>
        <mxCell id="e6qBKvb2sz5lTQHtv3lD-24" value="" style="html=1;points=[[0,0,0,0,5],[0,1,0,0,-5],[1,0,0,0,5],[1,1,0,0,-5]];perimeter=orthogonalPerimeter;outlineConnect=0;targetShapes=umlLifeline;portConstraint=eastwest;newEdgeStyle={&quot;curved&quot;:0,&quot;rounded&quot;:0};fontStyle=1" vertex="1" parent="1">
          <mxGeometry x="330" y="320" width="10" height="80" as="geometry" />
        </mxCell>
        <mxCell id="e6qBKvb2sz5lTQHtv3lD-26" value="" style="rounded=0;orthogonalLoop=1;jettySize=auto;html=1;endArrow=none;startFill=0;dashed=1;dashPattern=8 8;fontStyle=1" edge="1" parent="1" source="e6qBKvb2sz5lTQHtv3lD-20" target="e6qBKvb2sz5lTQHtv3lD-25">
          <mxGeometry relative="1" as="geometry">
            <mxPoint x="535" y="760" as="targetPoint" />
            <mxPoint x="535" y="240" as="sourcePoint" />
          </mxGeometry>
        </mxCell>
        <mxCell id="e6qBKvb2sz5lTQHtv3lD-25" value="" style="html=1;points=[[0,0,0,0,5],[0,1,0,0,-5],[1,0,0,0,5],[1,1,0,0,-5]];perimeter=orthogonalPerimeter;outlineConnect=0;targetShapes=umlLifeline;portConstraint=eastwest;newEdgeStyle={&quot;curved&quot;:0,&quot;rounded&quot;:0};fontStyle=1" vertex="1" parent="1">
          <mxGeometry x="530" y="320" width="10" height="60" as="geometry" />
        </mxCell>
        <mxCell id="e6qBKvb2sz5lTQHtv3lD-27" value="ポケモン・技のマスタデータの要求" style="html=1;verticalAlign=bottom;endArrow=block;curved=0;rounded=0;exitX=1.07;exitY=0.124;exitDx=0;exitDy=0;exitPerimeter=0;fontStyle=1" edge="1" parent="1" source="e6qBKvb2sz5lTQHtv3lD-24" target="e6qBKvb2sz5lTQHtv3lD-25">
          <mxGeometry width="80" relative="1" as="geometry">
            <mxPoint x="390" y="330" as="sourcePoint" />
            <mxPoint x="470" y="330" as="targetPoint" />
          </mxGeometry>
        </mxCell>
        <mxCell id="e6qBKvb2sz5lTQHtv3lD-28" value="ポケモン・技マスタデータ&lt;div&gt;存在しない場合はnull&lt;/div&gt;" style="html=1;verticalAlign=bottom;endArrow=open;dashed=1;endSize=8;curved=0;rounded=0;exitX=-0.091;exitY=0.792;exitDx=0;exitDy=0;exitPerimeter=0;fontStyle=1" edge="1" parent="1">
          <mxGeometry relative="1" as="geometry">
            <mxPoint x="529.0899999999999" y="370.0000000000001" as="sourcePoint" />
            <mxPoint x="340" y="370.0000000000001" as="targetPoint" />
          </mxGeometry>
        </mxCell>
        <mxCell id="e6qBKvb2sz5lTQHtv3lD-29" value="&lt;font style=&quot;font-size: 9px;&quot;&gt;マスタデータ取得&lt;/font&gt;" style="shape=umlFrame;whiteSpace=wrap;html=1;pointerEvents=0;strokeColor=#FF0000;fontColor=#FFFFFF;fillColor=#FF0000;fontStyle=1" vertex="1" parent="1">
          <mxGeometry x="260" y="300" width="300" height="155" as="geometry" />
        </mxCell>
        <mxCell id="e6qBKvb2sz5lTQHtv3lD-32" value="" style="html=1;points=[[0,0,0,0,5],[0,1,0,0,-5],[1,0,0,0,5],[1,1,0,0,-5]];perimeter=orthogonalPerimeter;outlineConnect=0;targetShapes=umlLifeline;portConstraint=eastwest;newEdgeStyle={&quot;curved&quot;:0,&quot;rounded&quot;:0};fontStyle=1" vertex="1" parent="1">
          <mxGeometry x="140" y="820" width="10" height="80" as="geometry" />
        </mxCell>
        <mxCell id="e6qBKvb2sz5lTQHtv3lD-33" value="" style="html=1;points=[[0,0,0,0,5],[0,1,0,0,-5],[1,0,0,0,5],[1,1,0,0,-5]];perimeter=orthogonalPerimeter;outlineConnect=0;targetShapes=umlLifeline;portConstraint=eastwest;newEdgeStyle={&quot;curved&quot;:0,&quot;rounded&quot;:0};fontStyle=1" vertex="1" parent="1">
          <mxGeometry x="330" y="820" width="10" height="50" as="geometry" />
        </mxCell>
        <mxCell id="e6qBKvb2sz5lTQHtv3lD-34" value="POST:/player" style="html=1;verticalAlign=bottom;endArrow=block;curved=0;rounded=0;fontStyle=1" edge="1" parent="1" target="e6qBKvb2sz5lTQHtv3lD-33">
          <mxGeometry width="80" relative="1" as="geometry">
            <mxPoint x="150" y="840" as="sourcePoint" />
            <mxPoint x="230" y="840" as="targetPoint" />
          </mxGeometry>
        </mxCell>
        <mxCell id="e6qBKvb2sz5lTQHtv3lD-36" value="" style="rounded=0;orthogonalLoop=1;jettySize=auto;html=1;endArrow=none;startFill=0;dashed=1;dashPattern=8 8;fontStyle=1" edge="1" parent="1" source="e6qBKvb2sz5lTQHtv3lD-61" target="e6qBKvb2sz5lTQHtv3lD-35">
          <mxGeometry relative="1" as="geometry">
            <mxPoint x="535" y="760" as="targetPoint" />
            <mxPoint x="535" y="370" as="sourcePoint" />
          </mxGeometry>
        </mxCell>
        <mxCell id="e6qBKvb2sz5lTQHtv3lD-35" value="" style="html=1;points=[[0,0,0,0,5],[0,1,0,0,-5],[1,0,0,0,5],[1,1,0,0,-5]];perimeter=orthogonalPerimeter;outlineConnect=0;targetShapes=umlLifeline;portConstraint=eastwest;newEdgeStyle={&quot;curved&quot;:0,&quot;rounded&quot;:0};fontStyle=1" vertex="1" parent="1">
          <mxGeometry x="530" y="820" width="10" height="50" as="geometry" />
        </mxCell>
        <mxCell id="e6qBKvb2sz5lTQHtv3lD-37" value="Playerの要求" style="html=1;verticalAlign=bottom;endArrow=block;curved=0;rounded=0;fontStyle=1" edge="1" parent="1">
          <mxGeometry width="80" relative="1" as="geometry">
            <mxPoint x="340" y="840" as="sourcePoint" />
            <mxPoint x="530" y="840" as="targetPoint" />
          </mxGeometry>
        </mxCell>
        <mxCell id="e6qBKvb2sz5lTQHtv3lD-38" value="&lt;font size=&quot;1&quot;&gt;Player | null&lt;/font&gt;" style="html=1;verticalAlign=bottom;endArrow=open;dashed=1;endSize=8;curved=0;rounded=0;entryX=1.062;entryY=0.81;entryDx=0;entryDy=0;entryPerimeter=0;fontStyle=1" edge="1" parent="1" source="e6qBKvb2sz5lTQHtv3lD-35" target="e6qBKvb2sz5lTQHtv3lD-33">
          <mxGeometry relative="1" as="geometry">
            <mxPoint x="470" y="859.66" as="sourcePoint" />
            <mxPoint x="390" y="859.66" as="targetPoint" />
          </mxGeometry>
        </mxCell>
        <mxCell id="e6qBKvb2sz5lTQHtv3lD-39" value="Player" style="html=1;verticalAlign=bottom;endArrow=open;dashed=1;endSize=8;curved=0;rounded=0;fontStyle=1" edge="1" parent="1">
          <mxGeometry relative="1" as="geometry">
            <mxPoint x="330" y="859.66" as="sourcePoint" />
            <mxPoint x="150" y="860" as="targetPoint" />
          </mxGeometry>
        </mxCell>
        <mxCell id="e6qBKvb2sz5lTQHtv3lD-47" value="" style="html=1;points=[[0,0,0,0,5],[0,1,0,0,-5],[1,0,0,0,5],[1,1,0,0,-5]];perimeter=orthogonalPerimeter;outlineConnect=0;targetShapes=umlLifeline;portConstraint=eastwest;newEdgeStyle={&quot;curved&quot;:0,&quot;rounded&quot;:0};fontStyle=1" vertex="1" parent="1">
          <mxGeometry x="140" y="920" width="10" height="80" as="geometry" />
        </mxCell>
        <mxCell id="e6qBKvb2sz5lTQHtv3lD-48" value="" style="html=1;points=[[0,0,0,0,5],[0,1,0,0,-5],[1,0,0,0,5],[1,1,0,0,-5]];perimeter=orthogonalPerimeter;outlineConnect=0;targetShapes=umlLifeline;portConstraint=eastwest;newEdgeStyle={&quot;curved&quot;:0,&quot;rounded&quot;:0};fontStyle=1" vertex="1" parent="1">
          <mxGeometry x="330" y="920" width="10" height="50" as="geometry" />
        </mxCell>
        <mxCell id="e6qBKvb2sz5lTQHtv3lD-49" value="POST:/player/register" style="html=1;verticalAlign=bottom;endArrow=block;curved=0;rounded=0;fontStyle=1" edge="1" parent="1" target="e6qBKvb2sz5lTQHtv3lD-48">
          <mxGeometry width="80" relative="1" as="geometry">
            <mxPoint x="150" y="940" as="sourcePoint" />
            <mxPoint x="230" y="940" as="targetPoint" />
          </mxGeometry>
        </mxCell>
        <mxCell id="e6qBKvb2sz5lTQHtv3lD-50" value="" style="html=1;points=[[0,0,0,0,5],[0,1,0,0,-5],[1,0,0,0,5],[1,1,0,0,-5]];perimeter=orthogonalPerimeter;outlineConnect=0;targetShapes=umlLifeline;portConstraint=eastwest;newEdgeStyle={&quot;curved&quot;:0,&quot;rounded&quot;:0};fontStyle=1" vertex="1" parent="1">
          <mxGeometry x="530" y="920" width="10" height="50" as="geometry" />
        </mxCell>
        <mxCell id="e6qBKvb2sz5lTQHtv3lD-51" value="Playerの登録" style="html=1;verticalAlign=bottom;endArrow=block;curved=0;rounded=0;fontStyle=1" edge="1" parent="1">
          <mxGeometry width="80" relative="1" as="geometry">
            <mxPoint x="340" y="940" as="sourcePoint" />
            <mxPoint x="530" y="940" as="targetPoint" />
          </mxGeometry>
        </mxCell>
        <mxCell id="e6qBKvb2sz5lTQHtv3lD-52" value="&lt;font size=&quot;1&quot;&gt;Player&lt;/font&gt;" style="html=1;verticalAlign=bottom;endArrow=open;dashed=1;endSize=8;curved=0;rounded=0;entryX=1.062;entryY=0.81;entryDx=0;entryDy=0;entryPerimeter=0;fontStyle=1" edge="1" parent="1" source="e6qBKvb2sz5lTQHtv3lD-50" target="e6qBKvb2sz5lTQHtv3lD-48">
          <mxGeometry relative="1" as="geometry">
            <mxPoint x="470" y="959.66" as="sourcePoint" />
            <mxPoint x="390" y="959.66" as="targetPoint" />
          </mxGeometry>
        </mxCell>
        <mxCell id="e6qBKvb2sz5lTQHtv3lD-53" value="Player" style="html=1;verticalAlign=bottom;endArrow=open;dashed=1;endSize=8;curved=0;rounded=0;fontStyle=1" edge="1" parent="1">
          <mxGeometry relative="1" as="geometry">
            <mxPoint x="330" y="959.66" as="sourcePoint" />
            <mxPoint x="150" y="960" as="targetPoint" />
          </mxGeometry>
        </mxCell>
        <mxCell id="e6qBKvb2sz5lTQHtv3lD-54" value="null" style="html=1;verticalAlign=bottom;endArrow=open;dashed=1;endSize=8;curved=0;rounded=0;entryX=1.338;entryY=0.214;entryDx=0;entryDy=0;entryPerimeter=0;fontStyle=1" edge="1" parent="1" source="e6qBKvb2sz5lTQHtv3lD-33" target="e6qBKvb2sz5lTQHtv3lD-47">
          <mxGeometry relative="1" as="geometry">
            <mxPoint x="320" y="910" as="sourcePoint" />
            <mxPoint x="140" y="910.34" as="targetPoint" />
          </mxGeometry>
        </mxCell>
        <mxCell id="e6qBKvb2sz5lTQHtv3lD-55" value="&lt;div&gt;&lt;font style=&quot;font-size: 9px;&quot;&gt;Player登録・取得&lt;/font&gt;&lt;/div&gt;" style="shape=umlFrame;whiteSpace=wrap;html=1;pointerEvents=0;strokeColor=#0066CC;fontColor=#FFFFFF;fillColor=#0066CC;fontStyle=1" vertex="1" parent="1">
          <mxGeometry x="80" y="790" width="530" height="215" as="geometry" />
        </mxCell>
        <mxCell id="e6qBKvb2sz5lTQHtv3lD-60" value="" style="rounded=0;orthogonalLoop=1;jettySize=auto;html=1;endArrow=none;startFill=0;dashed=1;dashPattern=8 8;fontStyle=1" edge="1" parent="1" source="e6qBKvb2sz5lTQHtv3lD-2" target="e6qBKvb2sz5lTQHtv3lD-59">
          <mxGeometry relative="1" as="geometry">
            <mxPoint x="145" y="1370" as="targetPoint" />
            <mxPoint x="145" y="90" as="sourcePoint" />
          </mxGeometry>
        </mxCell>
        <mxCell id="e6qBKvb2sz5lTQHtv3lD-59" value="" style="html=1;points=[[0,0,0,0,5],[0,1,0,0,-5],[1,0,0,0,5],[1,1,0,0,-5]];perimeter=orthogonalPerimeter;outlineConnect=0;targetShapes=umlLifeline;portConstraint=eastwest;newEdgeStyle={&quot;curved&quot;:0,&quot;rounded&quot;:0};fontStyle=1" vertex="1" parent="1">
          <mxGeometry x="140" y="570" width="10" height="80" as="geometry" />
        </mxCell>
        <mxCell id="e6qBKvb2sz5lTQHtv3lD-62" value="" style="rounded=0;orthogonalLoop=1;jettySize=auto;html=1;endArrow=none;startFill=0;dashed=1;dashPattern=8 8;fontStyle=1" edge="1" parent="1" source="e6qBKvb2sz5lTQHtv3lD-25" target="e6qBKvb2sz5lTQHtv3lD-61">
          <mxGeometry relative="1" as="geometry">
            <mxPoint x="535" y="820" as="targetPoint" />
            <mxPoint x="535" y="380" as="sourcePoint" />
          </mxGeometry>
        </mxCell>
        <mxCell id="e6qBKvb2sz5lTQHtv3lD-61" value="" style="html=1;points=[[0,0,0,0,5],[0,1,0,0,-5],[1,0,0,0,5],[1,1,0,0,-5]];perimeter=orthogonalPerimeter;outlineConnect=0;targetShapes=umlLifeline;portConstraint=eastwest;newEdgeStyle={&quot;curved&quot;:0,&quot;rounded&quot;:0};fontStyle=1" vertex="1" parent="1">
          <mxGeometry x="530" y="570" width="10" height="80" as="geometry" />
        </mxCell>
        <mxCell id="e6qBKvb2sz5lTQHtv3lD-63" value="Google認証" style="html=1;verticalAlign=bottom;endArrow=block;curved=0;rounded=0;entryX=-0.133;entryY=0.244;entryDx=0;entryDy=0;entryPerimeter=0;fontStyle=1" edge="1" parent="1" source="e6qBKvb2sz5lTQHtv3lD-59" target="e6qBKvb2sz5lTQHtv3lD-61">
          <mxGeometry x="-0.5247" y="10" width="80" relative="1" as="geometry">
            <mxPoint x="200" y="590" as="sourcePoint" />
            <mxPoint x="280" y="590" as="targetPoint" />
            <mxPoint as="offset" />
          </mxGeometry>
        </mxCell>
        <mxCell id="e6qBKvb2sz5lTQHtv3lD-65" value="User" style="html=1;verticalAlign=bottom;endArrow=open;dashed=1;endSize=8;curved=0;rounded=0;entryX=0.815;entryY=0.757;entryDx=0;entryDy=0;entryPerimeter=0;fontStyle=1" edge="1" parent="1" source="e6qBKvb2sz5lTQHtv3lD-61" target="e6qBKvb2sz5lTQHtv3lD-59">
          <mxGeometry x="-0.3715" y="-11" relative="1" as="geometry">
            <mxPoint x="240" y="630" as="sourcePoint" />
            <mxPoint x="160" y="630" as="targetPoint" />
            <mxPoint as="offset" />
          </mxGeometry>
        </mxCell>
        <mxCell id="e6qBKvb2sz5lTQHtv3lD-66" value="&lt;font size=&quot;1&quot;&gt;Google認証&lt;/font&gt;" style="shape=umlFrame;whiteSpace=wrap;html=1;pointerEvents=0;strokeColor=#0066CC;fontColor=#FFFFFF;fillColor=#0066CC;fontStyle=1" vertex="1" parent="1">
          <mxGeometry x="80" y="502.5" width="530" height="215" as="geometry" />
        </mxCell>
        <mxCell id="e6qBKvb2sz5lTQHtv3lD-68" value="" style="rounded=0;orthogonalLoop=1;jettySize=auto;html=1;endArrow=none;startFill=0;dashed=1;dashPattern=8 8;fontStyle=1" edge="1" parent="1" source="e6qBKvb2sz5lTQHtv3lD-59" target="e6qBKvb2sz5lTQHtv3lD-67">
          <mxGeometry relative="1" as="geometry">
            <mxPoint x="145" y="2003.9507378472222" as="targetPoint" />
            <mxPoint x="145" y="650" as="sourcePoint" />
          </mxGeometry>
        </mxCell>
        <mxCell id="e6qBKvb2sz5lTQHtv3lD-67" value="" style="html=1;points=[[0,0,0,0,5],[0,1,0,0,-5],[1,0,0,0,5],[1,1,0,0,-5]];perimeter=orthogonalPerimeter;outlineConnect=0;targetShapes=umlLifeline;portConstraint=eastwest;newEdgeStyle={&quot;curved&quot;:0,&quot;rounded&quot;:0};fontStyle=1" vertex="1" parent="1">
          <mxGeometry x="140" y="1120" width="10" height="150" as="geometry" />
        </mxCell>
        <mxCell id="e6qBKvb2sz5lTQHtv3lD-70" value="" style="rounded=0;orthogonalLoop=1;jettySize=auto;html=1;exitX=0.5;exitY=1;exitDx=0;exitDy=0;endArrow=none;startFill=0;dashed=1;dashPattern=8 8;fontStyle=1" edge="1" parent="1" source="e6qBKvb2sz5lTQHtv3lD-12" target="e6qBKvb2sz5lTQHtv3lD-69">
          <mxGeometry relative="1" as="geometry">
            <mxPoint x="340" y="1996.9135199652778" as="targetPoint" />
            <mxPoint x="335" y="240" as="sourcePoint" />
          </mxGeometry>
        </mxCell>
        <mxCell id="e6qBKvb2sz5lTQHtv3lD-69" value="" style="html=1;points=[[0,0,0,0,5],[0,1,0,0,-5],[1,0,0,0,5],[1,1,0,0,-5]];perimeter=orthogonalPerimeter;outlineConnect=0;targetShapes=umlLifeline;portConstraint=eastwest;newEdgeStyle={&quot;curved&quot;:0,&quot;rounded&quot;:0};fontStyle=1" vertex="1" parent="1">
          <mxGeometry x="330" y="1120" width="10" height="50" as="geometry" />
        </mxCell>
        <mxCell id="e6qBKvb2sz5lTQHtv3lD-71" value="POST:/first-pokemon" style="html=1;verticalAlign=bottom;endArrow=block;curved=0;rounded=0;entryX=0.122;entryY=0.407;entryDx=0;entryDy=0;entryPerimeter=0;fontStyle=1" edge="1" parent="1" source="e6qBKvb2sz5lTQHtv3lD-67" target="e6qBKvb2sz5lTQHtv3lD-69">
          <mxGeometry width="80" relative="1" as="geometry">
            <mxPoint x="170" y="1140" as="sourcePoint" />
            <mxPoint x="250" y="1140" as="targetPoint" />
          </mxGeometry>
        </mxCell>
        <mxCell id="e6qBKvb2sz5lTQHtv3lD-73" value="" style="rounded=0;orthogonalLoop=1;jettySize=auto;html=1;endArrow=none;startFill=0;dashed=1;dashPattern=8 8;fontStyle=1" edge="1" parent="1" source="e6qBKvb2sz5lTQHtv3lD-35" target="e6qBKvb2sz5lTQHtv3lD-72">
          <mxGeometry relative="1" as="geometry">
            <mxPoint x="535" y="1990" as="targetPoint" />
            <mxPoint x="535" y="870" as="sourcePoint" />
          </mxGeometry>
        </mxCell>
        <mxCell id="e6qBKvb2sz5lTQHtv3lD-72" value="" style="html=1;points=[[0,0,0,0,5],[0,1,0,0,-5],[1,0,0,0,5],[1,1,0,0,-5]];perimeter=orthogonalPerimeter;outlineConnect=0;targetShapes=umlLifeline;portConstraint=eastwest;newEdgeStyle={&quot;curved&quot;:0,&quot;rounded&quot;:0};fontStyle=1" vertex="1" parent="1">
          <mxGeometry x="530" y="1120" width="10" height="50" as="geometry" />
        </mxCell>
        <mxCell id="e6qBKvb2sz5lTQHtv3lD-74" value="&lt;font style=&quot;font-size: 9px;&quot;&gt;First-Pokemonの3体のデータリクエスト&lt;/font&gt;" style="html=1;verticalAlign=bottom;endArrow=block;curved=0;rounded=0;exitX=0.863;exitY=0.397;exitDx=0;exitDy=0;exitPerimeter=0;fontStyle=1" edge="1" parent="1" source="e6qBKvb2sz5lTQHtv3lD-69" target="e6qBKvb2sz5lTQHtv3lD-72">
          <mxGeometry width="80" relative="1" as="geometry">
            <mxPoint x="360" y="1140" as="sourcePoint" />
            <mxPoint x="440" y="1140" as="targetPoint" />
          </mxGeometry>
        </mxCell>
        <mxCell id="e6qBKvb2sz5lTQHtv3lD-76" value="&lt;span&gt;First-Pokemon(Pokemon[])&lt;/span&gt;" style="html=1;verticalAlign=bottom;endArrow=open;dashed=1;endSize=8;curved=0;rounded=0;entryX=1.258;entryY=0.802;entryDx=0;entryDy=0;entryPerimeter=0;fontStyle=1" edge="1" parent="1" source="e6qBKvb2sz5lTQHtv3lD-72" target="e6qBKvb2sz5lTQHtv3lD-69">
          <mxGeometry relative="1" as="geometry">
            <mxPoint x="470" y="1160" as="sourcePoint" />
            <mxPoint x="390" y="1160" as="targetPoint" />
          </mxGeometry>
        </mxCell>
        <mxCell id="e6qBKvb2sz5lTQHtv3lD-77" value="Pokemon[]" style="html=1;verticalAlign=bottom;endArrow=open;dashed=1;endSize=8;curved=0;rounded=0;entryX=0.949;entryY=0.267;entryDx=0;entryDy=0;entryPerimeter=0;fontStyle=1" edge="1" parent="1" source="e6qBKvb2sz5lTQHtv3lD-69" target="e6qBKvb2sz5lTQHtv3lD-67">
          <mxGeometry relative="1" as="geometry">
            <mxPoint x="280" y="1160" as="sourcePoint" />
            <mxPoint x="200" y="1160" as="targetPoint" />
          </mxGeometry>
        </mxCell>
        <mxCell id="e6qBKvb2sz5lTQHtv3lD-79" value="" style="rounded=0;orthogonalLoop=1;jettySize=auto;html=1;exitX=0.5;exitY=1;exitDx=0;exitDy=0;endArrow=none;startFill=0;dashed=1;dashPattern=8 8;fontStyle=1" edge="1" parent="1" source="e6qBKvb2sz5lTQHtv3lD-69" target="e6qBKvb2sz5lTQHtv3lD-78">
          <mxGeometry relative="1" as="geometry">
            <mxPoint x="340" y="1996.9135199652778" as="targetPoint" />
            <mxPoint x="335" y="1170" as="sourcePoint" />
          </mxGeometry>
        </mxCell>
        <mxCell id="e6qBKvb2sz5lTQHtv3lD-78" value="" style="html=1;points=[[0,0,0,0,5],[0,1,0,0,-5],[1,0,0,0,5],[1,1,0,0,-5]];perimeter=orthogonalPerimeter;outlineConnect=0;targetShapes=umlLifeline;portConstraint=eastwest;newEdgeStyle={&quot;curved&quot;:0,&quot;rounded&quot;:0};fontStyle=1" vertex="1" parent="1">
          <mxGeometry x="330" y="1180" width="10" height="60" as="geometry" />
        </mxCell>
        <mxCell id="e6qBKvb2sz5lTQHtv3lD-80" value="&lt;span&gt;POST:/first-pokemon/register&lt;/span&gt;&lt;div&gt;&lt;span&gt;Body:player_id,pokemon_id&lt;/span&gt;&lt;/div&gt;" style="html=1;verticalAlign=bottom;endArrow=block;curved=0;rounded=0;fontStyle=1" edge="1" parent="1">
          <mxGeometry width="80" relative="1" as="geometry">
            <mxPoint x="150" y="1204.6300000000003" as="sourcePoint" />
            <mxPoint x="330" y="1204.6300000000003" as="targetPoint" />
          </mxGeometry>
        </mxCell>
        <mxCell id="e6qBKvb2sz5lTQHtv3lD-82" value="" style="rounded=0;orthogonalLoop=1;jettySize=auto;html=1;endArrow=none;startFill=0;dashed=1;dashPattern=8 8;fontStyle=1" edge="1" parent="1" source="e6qBKvb2sz5lTQHtv3lD-72" target="e6qBKvb2sz5lTQHtv3lD-81">
          <mxGeometry relative="1" as="geometry">
            <mxPoint x="535" y="1990" as="targetPoint" />
            <mxPoint x="535" y="1170" as="sourcePoint" />
          </mxGeometry>
        </mxCell>
        <mxCell id="e6qBKvb2sz5lTQHtv3lD-81" value="" style="html=1;points=[[0,0,0,0,5],[0,1,0,0,-5],[1,0,0,0,5],[1,1,0,0,-5]];perimeter=orthogonalPerimeter;outlineConnect=0;targetShapes=umlLifeline;portConstraint=eastwest;newEdgeStyle={&quot;curved&quot;:0,&quot;rounded&quot;:0};fontStyle=1" vertex="1" parent="1">
          <mxGeometry x="530" y="1180" width="10" height="60" as="geometry" />
        </mxCell>
        <mxCell id="e6qBKvb2sz5lTQHtv3lD-83" value="&lt;span&gt;TeamPokemonの1体目への登録&lt;/span&gt;" style="html=1;verticalAlign=bottom;endArrow=block;curved=0;rounded=0;fontStyle=1" edge="1" parent="1">
          <mxGeometry width="80" relative="1" as="geometry">
            <mxPoint x="340" y="1200.0000000000002" as="sourcePoint" />
            <mxPoint x="530" y="1200.0000000000002" as="targetPoint" />
          </mxGeometry>
        </mxCell>
        <mxCell id="e6qBKvb2sz5lTQHtv3lD-84" value="TeamPokemon" style="html=1;verticalAlign=bottom;endArrow=open;dashed=1;endSize=8;curved=0;rounded=0;entryX=1.258;entryY=0.802;entryDx=0;entryDy=0;entryPerimeter=0;fontStyle=1" edge="1" parent="1">
          <mxGeometry relative="1" as="geometry">
            <mxPoint x="530" y="1229.26" as="sourcePoint" />
            <mxPoint x="343" y="1229.26" as="targetPoint" />
          </mxGeometry>
        </mxCell>
        <mxCell id="e6qBKvb2sz5lTQHtv3lD-85" value="TeamPokemon" style="html=1;verticalAlign=bottom;endArrow=open;dashed=1;endSize=8;curved=0;rounded=0;fontStyle=1" edge="1" parent="1">
          <mxGeometry relative="1" as="geometry">
            <mxPoint x="330" y="1230" as="sourcePoint" />
            <mxPoint x="150" y="1230" as="targetPoint" />
          </mxGeometry>
        </mxCell>
        <mxCell id="e6qBKvb2sz5lTQHtv3lD-86" value="&lt;div&gt;&lt;font style=&quot;font-size: 9px;&quot;&gt;初期ポケモン登録&lt;/font&gt;&lt;/div&gt;" style="shape=umlFrame;whiteSpace=wrap;html=1;pointerEvents=0;strokeColor=#0066CC;fontColor=#FFFFFF;fillColor=#0066CC;fontStyle=1" vertex="1" parent="1">
          <mxGeometry x="80" y="1087.5" width="530" height="215" as="geometry" />
        </mxCell>
        <mxCell id="e6qBKvb2sz5lTQHtv3lD-88" value="" style="rounded=0;orthogonalLoop=1;jettySize=auto;html=1;endArrow=none;startFill=0;dashed=1;dashPattern=8 8;fontStyle=1" edge="1" parent="1" source="e6qBKvb2sz5lTQHtv3lD-67" target="e6qBKvb2sz5lTQHtv3lD-87">
          <mxGeometry relative="1" as="geometry">
            <mxPoint x="145" y="2003.9507378472222" as="targetPoint" />
            <mxPoint x="145" y="1270" as="sourcePoint" />
          </mxGeometry>
        </mxCell>
        <mxCell id="e6qBKvb2sz5lTQHtv3lD-87" value="" style="html=1;points=[[0,0,0,0,5],[0,1,0,0,-5],[1,0,0,0,5],[1,1,0,0,-5]];perimeter=orthogonalPerimeter;outlineConnect=0;targetShapes=umlLifeline;portConstraint=eastwest;newEdgeStyle={&quot;curved&quot;:0,&quot;rounded&quot;:0};fontStyle=1" vertex="1" parent="1">
          <mxGeometry x="140" y="1400" width="10" height="80" as="geometry" />
        </mxCell>
        <mxCell id="e6qBKvb2sz5lTQHtv3lD-90" value="" style="rounded=0;orthogonalLoop=1;jettySize=auto;html=1;exitX=0.5;exitY=1;exitDx=0;exitDy=0;endArrow=none;startFill=0;dashed=1;dashPattern=8 8;fontStyle=1" edge="1" parent="1" source="e6qBKvb2sz5lTQHtv3lD-78" target="e6qBKvb2sz5lTQHtv3lD-89">
          <mxGeometry relative="1" as="geometry">
            <mxPoint x="340" y="1996.9135199652778" as="targetPoint" />
            <mxPoint x="335" y="1240" as="sourcePoint" />
          </mxGeometry>
        </mxCell>
        <mxCell id="e6qBKvb2sz5lTQHtv3lD-89" value="" style="html=1;points=[[0,0,0,0,5],[0,1,0,0,-5],[1,0,0,0,5],[1,1,0,0,-5]];perimeter=orthogonalPerimeter;outlineConnect=0;targetShapes=umlLifeline;portConstraint=eastwest;newEdgeStyle={&quot;curved&quot;:0,&quot;rounded&quot;:0};fontStyle=1" vertex="1" parent="1">
          <mxGeometry x="330" y="1400" width="10" height="80" as="geometry" />
        </mxCell>
        <mxCell id="e6qBKvb2sz5lTQHtv3lD-92" value="" style="rounded=0;orthogonalLoop=1;jettySize=auto;html=1;endArrow=none;startFill=0;dashed=1;dashPattern=8 8;fontStyle=1" edge="1" parent="1" source="e6qBKvb2sz5lTQHtv3lD-81" target="e6qBKvb2sz5lTQHtv3lD-91">
          <mxGeometry relative="1" as="geometry">
            <mxPoint x="535" y="1990" as="targetPoint" />
            <mxPoint x="535" y="1240" as="sourcePoint" />
          </mxGeometry>
        </mxCell>
        <mxCell id="e6qBKvb2sz5lTQHtv3lD-91" value="" style="html=1;points=[[0,0,0,0,5],[0,1,0,0,-5],[1,0,0,0,5],[1,1,0,0,-5]];perimeter=orthogonalPerimeter;outlineConnect=0;targetShapes=umlLifeline;portConstraint=eastwest;newEdgeStyle={&quot;curved&quot;:0,&quot;rounded&quot;:0};fontStyle=1" vertex="1" parent="1">
          <mxGeometry x="530" y="1430" width="10" height="50" as="geometry" />
        </mxCell>
        <mxCell id="e6qBKvb2sz5lTQHtv3lD-93" value="POST:/team-pokemon" style="html=1;verticalAlign=bottom;endArrow=block;curved=0;rounded=0;exitX=0.781;exitY=0.246;exitDx=0;exitDy=0;exitPerimeter=0;fontStyle=1" edge="1" parent="1" source="e6qBKvb2sz5lTQHtv3lD-87" target="e6qBKvb2sz5lTQHtv3lD-89">
          <mxGeometry width="80" relative="1" as="geometry">
            <mxPoint x="180" y="1420" as="sourcePoint" />
            <mxPoint x="260" y="1420" as="targetPoint" />
          </mxGeometry>
        </mxCell>
        <mxCell id="e6qBKvb2sz5lTQHtv3lD-94" value="TeamPokemonの取得" style="html=1;verticalAlign=bottom;endArrow=block;curved=0;rounded=0;exitX=1.257;exitY=0.803;exitDx=0;exitDy=0;exitPerimeter=0;fontStyle=1" edge="1" parent="1">
          <mxGeometry width="80" relative="1" as="geometry">
            <mxPoint x="342.56999999999994" y="1439.64" as="sourcePoint" />
            <mxPoint x="530" y="1439.64" as="targetPoint" />
          </mxGeometry>
        </mxCell>
        <mxCell id="e6qBKvb2sz5lTQHtv3lD-95" value="&lt;span&gt;TeamPokemon | null&lt;/span&gt;" style="html=1;verticalAlign=bottom;endArrow=open;dashed=1;endSize=8;curved=0;rounded=0;exitX=0;exitY=0.8;exitDx=0;exitDy=0;exitPerimeter=0;fontStyle=1" edge="1" parent="1" source="e6qBKvb2sz5lTQHtv3lD-91" target="e6qBKvb2sz5lTQHtv3lD-89">
          <mxGeometry relative="1" as="geometry">
            <mxPoint x="430" y="1470" as="sourcePoint" />
            <mxPoint x="350" y="1470" as="targetPoint" />
          </mxGeometry>
        </mxCell>
        <mxCell id="e6qBKvb2sz5lTQHtv3lD-96" value="&lt;span&gt;TeamPokemon | null&lt;/span&gt;" style="html=1;verticalAlign=bottom;endArrow=open;dashed=1;endSize=8;curved=0;rounded=0;fontStyle=1" edge="1" parent="1">
          <mxGeometry relative="1" as="geometry">
            <mxPoint x="330" y="1470" as="sourcePoint" />
            <mxPoint x="150" y="1470" as="targetPoint" />
          </mxGeometry>
        </mxCell>
        <mxCell id="e6qBKvb2sz5lTQHtv3lD-97" value="&lt;div&gt;&lt;font style=&quot;font-size: 9px;&quot;&gt;手持ちポケモン登録&lt;/font&gt;&lt;/div&gt;" style="shape=umlFrame;whiteSpace=wrap;html=1;pointerEvents=0;strokeColor=#0066CC;fontColor=#FFFFFF;fillColor=#0066CC;fontStyle=1" vertex="1" parent="1">
          <mxGeometry x="80" y="1370" width="530" height="215" as="geometry" />
        </mxCell>
      </root>
    </mxGraphModel>
  </diagram>
</mxfile>
